<?xml version="1.0" encoding="UTF-8"?>
<svg id="Layer_1" data-name="Layer 1" xmlns="http://www.w3.org/2000/svg" viewBox="0 0 184 192">
  <defs>
    <style>
      .cls-1 {
        fill: #fdfcfb;
      }

      .cls-2 {
        fill: #fdfdfc;
      }

      .cls-3 {
        fill: #b6753c;
      }

      .cls-4 {
        fill: #fefefe;
      }
    </style>
  </defs>
  <path class="cls-3" d="M126.98,0c6,0,12.01,0,18.01,0,1.3,1.36,2.75,2.62,3.87,4.11,2.24,2.98,4.07,6.04,8.46,6.72,1.5,.23,2.9,3.17,3.72,5.14,.58,1.39,.11,3.21,.11,3.37,4.25,.99,8.14,1.23,11.34,2.84,3.05,1.54,5.43,4.46,8.01,6.87,.66,.62,1.32,1.61,1.36,2.45,.27,5.3,.48,10.6,.48,15.9,0,7.62-.37,15.24-.23,22.85,.04,2.26,1.24,4.5,1.91,6.75v13c-.31,.34-.87,.66-.9,1.01-.73,10.61-1.41,21.22-2.1,31.83-.32,4.87-.3,9.8-1.04,14.61-1.01,6.55-2.4,13.06-4,19.49-2.62,10.52-3.75,21.71-12.4,29.74-1.88,1.75-3.71,3.55-5.56,5.32h-6c-.41-1.07-.87-2.12-1.22-3.21-2.07-6.42-2.51-6.48-9.4-5.53-1.22,.17-3.19-1.98-4.12-3.49-1.33-2.14-1.89-4.75-3.04-7.03-1.19-2.36-3.11-4.42-3.96-6.87-2.07-5.99-6.94-9.52-12.2-10.57-9.16-1.83-16.88-4.13-18.19-14.98-.06-.49-.82-.95-1.32-1.34-3.13-2.38-5.07-1.29-6.33,3.54-1.66,6.35-2.77,6.92-9.33,6.86-1.84-.02-4.22,1.34-5.43,2.82-2.5,3.04-5.15,5.2-9.25,4.83-4.44-.4-5.73-2.75-3.78-6.77,.9-1.85,1.81-3.69,2.71-5.54-3.62,1.44-6.8,3.06-9.14,5.49-5.26,5.48-10.73,6.77-18.01,3.89-4.28-1.69-10.79-3.37-13.83-1.34-5.79,3.85-6.66,.82-8.09-3.16-2.32,.54-4.41,1.39-6.5,1.4-1.62,0-3.65-.65-4.69-1.77-.55-.59,.35-2.91,1.04-4.23,1.77-3.37,3.78-6.62,5.87-10.23-4.57-.02-9.77,1.21-11.62-4.78-2.03-6.56-1.18-9.27,3.72-12.88-3.83-5.48-3.36-9.81,1.42-14.44,1.17-1.14,1.78-2.89,3.03-3.9,2.18-1.77,4.61-3.25,7-4.75,1.99-1.25,4.69-1.89,5.97-3.62,2.48-3.32,4.81-4.76,8.82-2.66,1.04,.55,2.79-.03,4.15-.37,1.91-.48,3.73-1.62,5.65-1.78,7.79-.63,10.77-3.72,10.73-10.83-2.93,0-5.88,.3-8.73-.08-3-.4-5.88-1.57-8.86-2.2-5.25-1.12-7.98-7.61-5.01-12.19,.69-1.06,1.43-2.1,2.14-3.14-.43,0-.87,.01-1.3,.02-.76-2.65-2.85-5.95-1.95-7.79,1.14-2.34,4.61-4.74,7.24-4.94,6.74-.5,13.35-.48,19.49-4.07,1.06-.62,3.41,.95,5.16,1.51-.85,1.39-1.68,2.8-2.57,4.17-.42,.64-.95,1.2-1.98,2.47,3.33,1.46,6.14,2.7,9.39,4.12,.43-5.27-1.02-10.31,4.13-11.85-.67-1.83-1.49-3.38-1.79-5.02-.58-3.1-.14-6.6-1.43-9.3-2.61-5.47-1.29-9.07,3.26-12.62,2.29-1.78,3.91-2.5,6.61-1.14,5.76,2.9,11.34,2.6,16.81-1.2,8.29-5.75,16.85-10.73,27.67-9.51C122.83,2.24,124.95,.72,126.98,0Z"/>
  <path class="cls-2" d="M126.98,0c-2.03,.72-4.14,2.24-6.06,2.02-10.82-1.22-19.38,3.76-27.67,9.51-5.46,3.79-11.05,4.1-16.81,1.2-2.7-1.36-4.32-.64-6.61,1.14-4.55,3.54-5.87,7.15-3.26,12.62,1.29,2.71,.85,6.2,1.43,9.3,.31,1.64,1.12,3.19,1.79,5.02-5.15,1.54-3.7,6.58-4.13,11.85-3.25-1.43-6.06-2.66-9.39-4.12,1.02-1.27,1.56-1.83,1.98-2.47,.89-1.37,1.72-2.78,2.57-4.17-1.75-.56-4.1-2.13-5.16-1.51-6.13,3.59-12.75,3.57-19.49,4.07-2.63,.19-6.1,2.6-7.24,4.94-.9,1.84,1.19,5.14,1.95,7.79,.43,0,.87-.01,1.3-.02-.72,1.05-1.45,2.08-2.14,3.14-2.97,4.57-.24,11.07,5.01,12.19,2.98,.63,5.86,1.8,8.86,2.2,2.86,.38,5.81,.08,8.73,.08,.04,7.1-2.94,10.19-10.73,10.83-1.92,.16-3.73,1.3-5.65,1.78-1.35,.34-3.1,.91-4.15,.37-4.01-2.1-6.34-.66-8.82,2.66-1.29,1.73-3.99,2.37-5.97,3.62-2.39,1.5-4.82,2.97-7,4.75-1.24,1.01-1.86,2.76-3.03,3.9-4.77,4.64-5.25,8.96-1.42,14.44-4.9,3.61-5.75,6.32-3.72,12.88,1.85,5.99,7.06,4.75,11.62,4.78-2.09,3.61-4.11,6.86-5.87,10.23-.69,1.31-1.59,3.63-1.04,4.23,1.04,1.12,3.07,1.77,4.69,1.77,2.09,0,4.17-.86,6.5-1.4,1.43,3.98,2.3,7.01,8.09,3.16,3.04-2.02,9.55-.35,13.83,1.34,7.29,2.88,12.75,1.6,18.01-3.89,2.33-2.43,5.52-4.05,9.14-5.49-.9,1.85-1.81,3.69-2.71,5.54-1.95,4.02-.66,6.37,3.78,6.77,4.1,.37,6.76-1.78,9.25-4.83,1.21-1.48,3.59-2.83,5.43-2.82,6.56,.06,7.67-.51,9.33-6.86,1.26-4.83,3.2-5.92,6.33-3.54,.5,.38,1.26,.84,1.32,1.34,1.31,10.85,9.02,13.15,18.19,14.98,5.26,1.05,10.14,4.57,12.2,10.57,.85,2.45,2.77,4.51,3.96,6.87,1.15,2.28,1.7,4.89,3.04,7.03,.94,1.51,2.9,3.66,4.12,3.49,6.88-.96,7.32-.89,9.4,5.53,.35,1.09,.81,2.14,1.22,3.21H0V0C42.27,0,84.62,0,126.98,0Z"/>
  <path class="cls-1" d="M184,77c-.67-2.25-1.87-4.49-1.91-6.75-.13-7.61,.23-15.23,.23-22.85,0-5.3-.21-10.6-.48-15.9-.04-.85-.7-1.84-1.36-2.45-2.58-2.42-4.95-5.34-8.01-6.87-3.2-1.61-7.08-1.85-11.34-2.84,0-.15,.47-1.98-.11-3.37-.82-1.96-2.21-4.9-3.72-5.14-4.39-.68-6.22-3.74-8.46-6.72-1.13-1.5-2.57-2.75-3.87-4.11,13.01,0,26.01,0,39.02,0V77Z"/>
  <path class="cls-4" d="M157.99,192c1.85-1.77,3.68-3.57,5.56-5.32,8.65-8.03,9.78-19.22,12.4-29.74,1.6-6.43,2.99-12.94,4-19.49,.74-4.81,.73-9.74,1.04-14.61,.69-10.61,1.37-21.22,2.1-31.83,.02-.36,.59-.68,.9-1.01v102h-26.01Z"/>
</svg>